<svg id="Capa_1" enable-background="new 0 0 510.228 510.228" height="512" viewBox="0 0 510.228 510.228" width="512" xmlns="http://www.w3.org/2000/svg"><g><path d="m271.89 405.171h-33.552c-28.964 0-52.529 23.564-52.529 52.528s23.564 52.529 52.529 52.529h33.552c28.964 0 52.529-23.564 52.529-52.529s-23.565-52.528-52.529-52.528z" fill="#569759"/><path d="m271.89 405.171h-16.776v105.057h16.776c28.964 0 52.529-23.564 52.529-52.529s-23.565-52.528-52.529-52.528z" fill="#4d873c"/><path d="m301.919 330.114h-93.609c-28.964 0-52.529 23.564-52.529 52.529s23.564 52.528 52.529 52.528h93.609c28.964 0 52.529-23.564 52.529-52.529s-23.565-52.528-52.529-52.528z" fill="#aee993"/><path d="m301.919 330.114h-46.805v105.057h46.805c28.964 0 52.529-23.564 52.529-52.529s-23.565-52.528-52.529-52.528z" fill="#85c782"/><path d="m319.759 255.057h-129.29c-28.964 0-52.529 23.564-52.529 52.529s23.564 52.528 52.529 52.528h129.29c28.964 0 52.529-23.564 52.529-52.528s-23.565-52.529-52.529-52.529z" fill="#569759"/><path d="m319.759 255.057h-64.645v105.057h64.645c28.964 0 52.529-23.564 52.529-52.528s-23.565-52.529-52.529-52.529z" fill="#4d873c"/><path d="m345.4 180h-180.572c-28.964 0-52.529 23.564-52.529 52.528s23.564 52.528 52.529 52.528h180.572c28.964 0 52.529-23.564 52.529-52.528s-23.565-52.528-52.529-52.528z" fill="#aee993"/><path d="m345.4 180h-90.286v105.057h90.286c28.964 0 52.529-23.564 52.529-52.528s-23.565-52.529-52.529-52.529z" fill="#85c782"/><path d="m371.518 70.256-9.004-27.012c-8.622-25.866-32.733-43.244-59.998-43.244h-94.805c-27.265 0-51.375 17.378-59.998 43.244l-9.004 27.013c-1.524 4.574-.757 9.603 2.062 13.514s7.347 6.229 12.169 6.229h204.348c4.822 0 9.349-2.318 12.168-6.229s3.587-8.94 2.062-13.515z" fill="#aee993"/><path d="m362.514 43.244c-8.622-25.866-32.733-43.244-59.998-43.244h-47.402v90h102.174c4.822 0 9.349-2.318 12.168-6.229s3.586-8.94 2.062-13.514z" fill="#85c782"/><path d="m332.114 60h-154c-41.355 0-75 33.645-75 75s33.645 75 75 75h154c41.355 0 75-33.645 75-75s-33.645-75-75-75z" fill="#569759"/><path d="m332.114 60h-77v150h77c41.355 0 75-33.645 75-75s-33.645-75-75-75z" fill="#4d873c"/><g><g><g><path d="m184.114 148.395c7.846 0 15.363-6.899 15-15-.364-8.127-6.591-15-15-15-7.846 0-15.363 6.899-15 15 .364 8.127 6.591 15 15 15z" fill="#404a4a"/></g></g></g><g><g><g><path d="m326.114 148.395c7.846 0 15.363-6.899 15-15-.364-8.127-6.591-15-15-15-7.846 0-15.363 6.899-15 15 .364 8.127 6.591 15 15 15z" fill="#323c3c"/></g></g></g></g></svg>