<svg id="Capa_1" enable-background="new 0 0 512.01 512.01" height="512" viewBox="0 0 512.01 512.01" width="512" xmlns="http://www.w3.org/2000/svg"><g><path d="m256.005 286.01h-60v90l24.882 30h35.118 35.118l24.882-30v-90z" fill="#ffe1ba"/><path d="m316.005 376.01v-90h-60v120h35.118z" fill="#ffbfab"/><path d="m256.005 376.01h-60v45c12.757 17.311 34.528 30 60 30 24.283 0 46.333-12.079 60-30.3v-44.7z" fill="#ffbfab"/><path d="m316.005 420.71v-44.7h-60v75c24.284 0 46.333-12.08 60-30.3z" fill="#f89580"/><path d="m494.749 159.531 16.494-49.805c1.725-5.208.489-11.182-3.382-15.07-20.709-20.799-43.973-30.438-67.257-28.246-46.978 4.16-81.826 54.185-100.547 81.064-2.358 3.369-4.38 6.299-6.079 8.584-3.384 4.541-3.926 10.591-1.392 15.659 6.112 12.226 4.885 10.769 11.294 23.588 4.38 9.097 3.589 19.57-2.168 28.726-6.592 10.474-18.164 16.978-30.205 16.978h-10.503v-79.193c16.157-14.546 26.807-36.475 29.385-60.439 36.123-12.993 60.615-47.285 60.615-86.367 0-6.064-3.647-11.543-9.258-13.857-5.625-2.344-12.07-1.04-16.348 3.252-14.648 14.648-33.604 23.467-53.994 25.254-14.209-18.955-34.805-28.433-55.4-28.433s-41.191 9.478-55.4 28.433c-20.391-1.787-39.346-10.605-53.994-25.254-4.277-4.277-10.693-5.581-16.348-3.252-5.61 2.314-9.258 7.793-9.258 13.857 0 38.599 23.892 72.524 60.601 86.221 2.549 24.023 13.213 46.011 29.399 60.586v79.193h-10.503c-12.041 0-23.613-6.504-30.205-16.978-5.757-9.155-6.548-19.629-2.168-28.726 1.263-2.624 10.104-21.229 11.296-23.597 2.529-5.065 1.989-11.111-1.393-15.65-1.699-2.285-3.721-5.215-6.079-8.584-18.721-26.88-53.569-76.904-100.547-81.064-23.168-2.162-46.569 7.449-67.267 28.257-3.865 3.885-5.094 9.857-3.371 15.059l16.538 49.937c5.878 17.195 1.827 37.227-9.602 51.347l22.302 15-21.863 15 17.651 20.447c19.043 22.057 17.223 51.843 5.486 78.512-2.523 5.729-1.221 12.448 3.296 16.822 4.673 4.512 11.675 5.552 17.388 2.505 3.005-1.172 42.1-24.276 99.042-27.817v110.464c-18.657 11.748-30.027 33.042-30 55.15.011 8.207 6.793 14.918 15 14.918h60c8.284 0 15-6.716 15-15v-151c0-24.853 20.147-45 45-45s45 20.147 45 45v151c0 8.284 6.716 15 15 15h60c8.198 0 14.985-6.694 15-14.894.037-21.896-11.116-43.01-30-55.1v-110.539c56.938 3.543 96.041 26.647 99.042 27.817 5.742 3.047 12.744 2.007 17.388-2.505 4.517-4.374 5.817-11.091 3.298-16.818-11.733-26.675-13.55-56.461 5.491-78.519l17.646-20.444-21.865-15 22.302-15c-11.429-14.119-15.48-34.151-9.602-51.347.015-.044.03-.088.044-.132z" fill="#ff7b4a"/><path d="m301.005 346.01v151c0 8.284 6.716 15 15 15h60c8.198 0 14.985-6.694 15-14.894.037-21.896-11.116-43.01-30-55.1v-110.537c56.938 3.543 96.041 26.647 99.042 27.817 5.742 3.047 12.744 2.007 17.388-2.505 4.517-4.374 5.817-11.091 3.298-16.818-11.733-26.675-13.55-56.461 5.491-78.519l17.646-20.444-21.865-15 22.302-15c-11.429-14.119-15.48-34.151-9.602-51.347.015-.044.029-.088.044-.132l16.494-49.805c1.725-5.208.489-11.182-3.382-15.07-20.709-20.799-43.973-30.438-67.257-28.246-46.978 4.16-81.826 54.185-100.547 81.064-2.358 3.369-4.38 6.299-6.079 8.584-3.384 4.541-3.926 10.591-1.392 15.659 6.112 12.226 4.885 10.769 11.294 23.588 4.38 9.097 3.589 19.57-2.168 28.726-6.592 10.474-18.164 16.978-30.205 16.978h-10.503v-79.193c16.157-14.546 26.807-36.475 29.385-60.439 36.123-12.993 60.615-47.285 60.615-86.367 0-6.064-3.647-11.543-9.258-13.857-5.625-2.344-12.07-1.04-16.348 3.252-14.648 14.648-33.604 23.467-53.994 25.254-14.209-18.955-34.805-28.433-55.4-28.433v299.784c24.854 0 45.001 20.147 45.001 45z" fill="#ff435b"/><path d="m179.425 171.71c-.002.004 0 .005-.002.009.189-.377.174-.35.002-.009z" fill="#ff7b4a"/><path d="m507.611 215.404c-1.318-1.318-2.144-2.963-3.303-4.395h-68.302c-8.291 0-15 6.709-15 15s6.709 15 15 15h67.865l4.488-5.2c5.14-5.947 4.803-14.853-.748-20.405z" fill="#d0004f"/><path d="m91.005 226.01c0-8.291-6.709-15-15-15h-68.302c-1.159 1.432-1.985 3.076-3.303 4.395-5.552 5.552-5.889 14.458-.747 20.405l4.49 5.2h67.863c8.29 0 14.999-6.709 14.999-15z" fill="#ff435b"/></g></svg>