<svg id="Capa_1" enable-background="new 0 0 512.698 512.698" height="512" viewBox="0 0 512.698 512.698" width="512" xmlns="http://www.w3.org/2000/svg"><g><g><g><path d="m421.62 180.445c35.082-35.082 70.873-113.127 89.811-158.464 5.452-13.051-7.663-26.166-20.714-20.714-45.337 18.938-123.382 54.729-158.464 89.811l-187.372 187.371 89.367 89.367z" fill="#fbf4f4"/><path d="m511.43 21.981c2.726-6.526.81-13.067-3.419-17.295l-318.446 318.447 44.683 44.683 187.372-187.371c35.082-35.083 70.873-113.127 89.81-158.464z" fill="#eae0db"/></g><g><path d="m252.504 260.193c-6.186-6.186-6.186-16.215 0-22.401l156.915-156.914c6.186-6.186 16.215-6.186 22.401 0s6.186 16.215 0 22.401l-156.914 156.914c-6.186 6.186-16.216 6.186-22.402 0z" fill="#eae0db"/><path d="m431.82 80.878-179.316 179.315c6.186 6.186 16.215 6.186 22.401 0l156.915-156.914c6.186-6.186 6.186-16.216 0-22.401z" fill="#c7bdb8"/></g></g><g><g><path d="m45.438 361.568h147.879v63.503h-147.879z" fill="#2b495d" transform="matrix(-.707 .707 -.707 -.707 481.91 587.025)"/><path d="m56.664 388.669h147.879v31.751h-147.879z" fill="#182831" transform="matrix(.707 -.707 .707 .707 -247.804 210.84)"/></g><g><g><path d="m198.34 412.645-98.288-98.288c-5.858-5.858-5.858-15.355 0-21.213l23.69-23.69c5.858-5.858 15.355-5.858 21.213 0l98.288 98.288c5.858 5.858 5.858 15.355 0 21.213l-23.69 23.69c-5.858 5.858-15.355 5.858-21.213 0z" fill="#457899"/><path d="m242.649 367.148-48.55-48.55-44.903 44.903 48.55 48.55c6.186 6.186 16.215 6.186 22.401 0l22.502-22.502c6.186-6.186 6.186-16.215 0-22.401z" fill="#2b495d"/></g><g><path d="m50.639 503.891-41.832-41.832c-11.742-11.742-11.742-30.78 0-42.522l2.382-2.382c11.742-11.742 30.78-11.742 42.521 0l41.832 41.832c11.742 11.742 11.742 30.78 0 42.522l-2.382 2.382c-11.742 11.742-30.779 11.742-42.521 0z" fill="#457899"/><path d="m74.626 438.072-44.903 44.903 20.916 20.916c11.742 11.742 30.779 11.742 42.522 0l2.382-2.382c11.742-11.742 11.742-30.78 0-42.521z" fill="#2b495d"/></g></g></g></g></svg>