<svg id="Capa_1" enable-background="new 0 0 512 512" height="512" viewBox="0 0 512 512" width="512" xmlns="http://www.w3.org/2000/svg"><g><g><path d="m512 136c0-8.28-6.72-15-15-15h-121c-52.18 0-97.54 29.76-120 73.2-22.46-43.44-67.82-73.2-120-73.2h-121c-8.28 0-15 6.72-15 15 0 16.87 5.6 32.46 15.04 45l49.21 12.75-32.74 17.25c2.26 11.08 6.97 21.28 13.54 30l57.45 15-10.97 15c6.97 34.19 37.25 60 73.47 60h31c24.81 0 45 20.19 45 45 0 8.28 6.72 15 15 15s15-6.72 15-15c0-24.81 20.19-45 45-45h31c36.22 0 66.5-25.81 73.47-60l-6-19 52.48-11c6.57-8.72 11.28-18.92 13.54-30l-23.99-20.5 40.46-9.5c9.44-12.54 15.04-28.13 15.04-45z" fill="#ececf1"/></g><path d="m496.96 181-40.46 9.5 23.99 20.5c-2.26 11.08-6.97 21.28-13.54 30l-52.48 11 6 19c-6.97 34.19-37.25 60-73.47 60h-31c-24.81 0-45 20.19-45 45 0 8.28-6.72 15-15 15v-196.8c22.46-43.44 67.82-73.2 120-73.2h121c8.28 0 15 6.72 15 15 0 16.87-5.6 32.46-15.04 45z" fill="#d3d3d8"/><g><g><path d="m496.96 181c-4.26 5.66-9.3 10.7-14.96 14.96v.04c0 5.14-.52 10.15-1.51 15h-73.49c-8.28 0-15-6.72-15-15s6.72-15 15-15z" fill="#babac0"/></g></g><g><path d="m466.95 241c-11.08 14.71-27.44 25.23-46.23 28.72-.08.43-.16.85-.25 1.28h-43.47c-8.28 0-15-6.72-15-15s6.72-15 15-15z" fill="#babac0"/></g><g><path d="m120 196c0 8.28-6.72 15-15 15h-73.49c-.99-4.85-1.51-9.86-1.51-15v-.04c-5.66-4.26-10.7-9.3-14.96-14.96h89.96c8.28 0 15 6.72 15 15z" fill="#d3d3d8"/></g><g><path d="m150 256c0 8.28-6.72 15-15 15h-43.47c-.09-.43-.17-.85-.25-1.28-18.79-3.49-35.15-14.01-46.23-28.72h89.95c8.28 0 15 6.72 15 15z" fill="#d3d3d8"/></g></g></svg>