<svg id="Layer_1" enable-background="new 0 0 512 512" height="512" viewBox="0 0 512 512" width="512" xmlns="http://www.w3.org/2000/svg"><path d="m110.333 497h.01z"/><g><path d="m90.289 497c-5.479 0-9.949-4.408-9.996-9.887-.968-112.395-18.447-223.723-51.99-331.063l-27.618-88.375c-2.25-7.201 1.198-14.953 8.055-18.104 6.856-3.148 14.983-.718 18.982 5.68l67 107.197c60.975 97.558 94.026 209.511 95.866 324.395.089 5.581-4.424 10.15-10.006 10.151z" fill="#87e752"/><path d="m421.711 497c5.479 0 9.949-4.408 9.996-9.887.968-112.396 18.447-223.724 51.99-331.064l27.618-88.375c2.25-7.201-1.198-14.953-8.055-18.104-6.856-3.148-14.983-.718-18.982 5.68l-67 107.197c-60.975 97.558-94.026 209.511-95.866 324.395-.089 5.581 4.424 10.15 10.006 10.151z" fill="#4ec95f"/><path d="m339.942.44c-8.077-1.977-16.053 2.905-18.115 10.744-24.995 94.977-50.344 181.143-65.827 282.735-15.483-101.592-40.832-187.758-65.827-282.736-2.063-7.838-10.039-12.72-18.115-10.743-6.781 1.66-11.391 7.983-11.391 14.965v471.596c0 5.523 4.477 10 10 10h170.666c5.523 0 10-4.477 10-10v-471.596c0-6.982-4.609-13.305-11.391-14.965z" fill="#4ec95f"/><path d="m351.333 487.001v-471.596c0-6.982-4.609-13.305-11.391-14.965-8.077-1.977-16.053 2.905-18.115 10.744-24.995 94.977-50.344 181.143-65.827 282.735v203.082h85.333c5.523 0 10-4.477 10-10z" fill="#14aa6b"/><path d="m464.866 512h-417.732c-8.284 0-15-6.716-15-15s6.716-15 15-15h417.732c8.284 0 15 6.716 15 15s-6.716 15-15 15z" fill="#c8ff50"/><path d="m479.866 497c0-8.284-6.716-15-15-15h-208.866v30h208.866c8.284 0 15-6.716 15-15z" fill="#87e752"/></g></svg>