<?xml version="1.0" encoding="iso-8859-1"?>
<!-- Generator: Adobe Illustrator 19.0.0, SVG Export Plug-In . SVG Version: 6.00 Build 0)  -->
<svg version="1.1" id="Capa_1" xmlns="http://www.w3.org/2000/svg" xmlns:xlink="http://www.w3.org/1999/xlink" x="0px" y="0px"
	 viewBox="0 0 512.001 512.001" style="enable-background:new 0 0 512.001 512.001;" xml:space="preserve">
<path style="fill:#FFDA68;" d="M496.77,512H15.23C6.819,512,0,505.181,0,496.77V15.23C0,6.819,6.819,0,15.23,0h481.54
	C505.181,0,512,6.819,512,15.23v481.54C512,505.181,505.181,512,496.77,512z"/>
<g>
	<path style="fill:#FFA426;" d="M496.77,0H256v512h240.77c8.411,0,15.23-6.819,15.23-15.23V15.23C512,6.819,505.181,0,496.77,0z"/>
	<path style="fill:#FFA426;" d="M297.402,112.217h-56.651c-4.886,0-9.474,2.344-12.338,6.301l-22.316,30.837l-69.55-35.476
		c-4.747-2.421-10.414-2.184-14.945,0.622L0,189.894v35.286l130.354-80.264l73.556,37.518c0.029,0.015,0.059,0.03,0.088,0.045
		l81.039,41.335c2.216,1.13,4.579,1.666,6.908,1.666c5.543,0,10.888-3.037,13.579-8.314c3.822-7.493,0.846-16.665-6.647-20.487
		l-65.317-33.316l14.97-20.686h48.873c8.411,0,15.23-6.819,15.23-15.23S305.813,112.217,297.402,112.217z"/>
</g>
<path style="fill:#FE6A16;" d="M512,290.316l-48.94,32.433l-29.167-44.584c-4.606-7.038-14.043-9.009-21.083-4.408
	c-7.039,4.605-9.012,14.044-4.408,21.083l29.267,44.736l-44.534,29.513c-7.015,4.641-8.94,14.09-4.298,21.105
	c2.93,4.429,7.775,6.829,12.715,6.829c2.886,0,5.804-0.819,8.39-2.53l57.114-37.786c0.005-0.003,0.009-0.005,0.014-0.008
	c0.004-0.003,0.008-0.006,0.012-0.009l44.919-29.719v-36.654H512z"/>
<path style="fill:#FFA426;" d="M213.462,343.236l-62.594,44.075l-15.476-37.427c-3.205-7.776-12.109-11.482-19.884-8.276
	c-7.776,3.205-11.482,12.109-8.276,19.885l22.814,55.343c0.002,0.004,0.003,0.008,0.005,0.012l39.226,95.153h33.149L162.8,416.166
	l68.201-48.023c6.877-4.843,8.527-14.344,3.684-21.22C229.841,340.043,220.341,338.393,213.462,343.236z"/>
<g>
	<path style="fill:#FE6A16;" d="M409.967,78.353L394.45,113.7c-3.381,7.701,0.121,16.686,7.823,20.067
		c1.992,0.874,4.069,1.289,6.113,1.289c5.859,0,11.447-3.402,13.953-9.113l18.653-42.489c1.969-4.485,1.661-9.642-0.827-13.86
		L399.109,0h-35.633L409.967,78.353z"/>
	<path style="fill:#FE6A16;" d="M291.944,225.479c5.543,0,10.888-3.037,13.579-8.314c3.822-7.493,0.846-16.665-6.647-20.487
		l-42.876-21.87v34.193l29.036,14.811C287.252,224.944,289.615,225.479,291.944,225.479z"/>
	<path style="fill:#FE6A16;" d="M297.402,112.217H256v30.46h41.402c8.411,0,15.23-6.819,15.23-15.23
		S305.813,112.217,297.402,112.217z"/>
</g>
<g>
</g>
<g>
</g>
<g>
</g>
<g>
</g>
<g>
</g>
<g>
</g>
<g>
</g>
<g>
</g>
<g>
</g>
<g>
</g>
<g>
</g>
<g>
</g>
<g>
</g>
<g>
</g>
<g>
</g>
</svg>
