<?xml version="1.0" encoding="iso-8859-1"?>
<!-- Generator: Adobe Illustrator 19.0.0, SVG Export Plug-In . SVG Version: 6.00 Build 0)  -->
<svg version="1.1" id="Capa_1" xmlns="http://www.w3.org/2000/svg" xmlns:xlink="http://www.w3.org/1999/xlink" x="0px" y="0px"
	 viewBox="0 0 512 512" style="enable-background:new 0 0 512 512;" xml:space="preserve">
<path style="fill:#FFB066;" d="M383.451,127.451c-20.296,0-40.521,4.859-58.489,14.052c-17.358,8.881-32.726,21.84-44.441,37.479
	L256,211.712l-24.521-32.729c-11.716-15.638-27.083-28.597-44.44-37.478c-17.968-9.194-38.194-14.053-58.49-14.053
	C57.667,127.451,0,185.118,0,256s57.667,128.549,128.549,128.549c20.296,0,40.521-4.859,58.489-14.052
	c17.358-8.882,32.726-21.842,44.441-37.48L256,300.287l24.423,32.598c0.033,0.045,0.067,0.091,0.1,0.135
	c11.716,15.637,27.083,28.596,44.441,37.477c17.968,9.192,38.192,14.051,58.487,14.051C454.333,384.549,512,326.882,512,256
	S454.333,127.451,383.451,127.451z M188.976,301.174c-14.411,19.234-36.436,30.266-60.427,30.266
	c-41.597,0-75.44-33.842-75.44-75.44s33.842-75.44,75.44-75.44c23.992,0,46.018,11.032,60.428,30.267l-0.001-0.002l0.009,0.013
	c0.005,0.008,0.011,0.015,0.017,0.022L222.82,256L188.976,301.174z M383.451,331.44c-23.942,0-45.926-10.986-60.338-30.147
	c-0.029-0.041-0.059-0.08-0.089-0.119l-33.844-45.175l33.844-45.174c14.41-19.234,36.435-30.265,60.427-30.265
	c41.597,0,75.44,33.842,75.44,75.44S425.049,331.44,383.451,331.44z"/>
<path style="fill:#FFEB6B;" d="M256,211.712l-24.521-32.729c-11.716-15.637-27.083-28.597-44.44-37.478
	c-17.968-9.194-38.194-14.053-58.49-14.053C57.667,127.451,0,185.118,0,256s57.667,128.549,128.549,128.549
	c20.296,0,40.521-4.859,58.489-14.052c17.358-8.882,32.726-21.842,44.441-37.48L256,300.287V211.712z M188.976,301.174
	c-14.411,19.234-36.436,30.266-60.427,30.266c-41.597,0-75.44-33.842-75.44-75.44s33.842-75.44,75.44-75.44
	c23.992,0,46.018,11.032,60.428,30.267l-0.001-0.002l0.009,0.013c0.005,0.008,0.011,0.015,0.016,0.022L222.82,256L188.976,301.174z"
	/>
<g>
</g>
<g>
</g>
<g>
</g>
<g>
</g>
<g>
</g>
<g>
</g>
<g>
</g>
<g>
</g>
<g>
</g>
<g>
</g>
<g>
</g>
<g>
</g>
<g>
</g>
<g>
</g>
<g>
</g>
</svg>
