<svg id="Capa_1" enable-background="new 0 0 512 512" height="512" viewBox="0 0 512 512" width="512" xmlns="http://www.w3.org/2000/svg"><g><g><path d="m300.861 90.064v-77.317c0-7.011-5.736-12.747-12.747-12.747h-64.228c-7.011 0-12.747 5.736-12.747 12.747v77.317l44.019 44.019z" fill="#f5dfbb"/><path d="m288.114 0h-32.956v134.083l45.703-44.019v-77.317c0-7.011-5.736-12.747-12.747-12.747z" fill="#e7aa60"/></g><g><g><g><path d="m321.194 90.064v109.791h48.676c14.397 0 26.177 9.928 26.177 22.062l-28.681 268.021c0 12.134-11.779 22.062-26.177 22.062h-170.378c-14.397 0-26.177-9.928-26.177-22.062l-28.68-268.021c0-12.134 11.779-22.062 26.177-22.062h48.676v-109.791z" fill="#fbf4f4"/><path d="m369.87 199.855h-48.676v-109.791h-66.036v421.936h86.032c14.397 0 26.177-9.928 26.177-22.062l28.681-268.021c-.001-12.134-11.781-22.062-26.178-22.062z" fill="#e2e9ee"/></g><g><g><path d="m144.634 489.938c0 12.134 11.779 22.062 26.177 22.062h170.379c14.397 0 26.177-9.928 26.177-22.062l16.191-151.305h-123.23c0-17.6-14.267-31.867-31.867-31.867s-31.867 14.267-31.867 31.867h-.002-68.148z" fill="#8fd4a9"/><path d="m260.327 338.633c0-6.419-1.904-12.389-5.169-17.391v190.758h86.031c14.397 0 26.177-9.928 26.177-22.062l16.191-151.305z" fill="#62a793"/></g><path d="m303.899 461.859c-6.293 0-12.036-4.072-14.135-9.995-2.095-5.912-.188-12.719 4.702-16.661 4.652-3.75 11.218-4.37 16.494-1.564 5.727 3.046 8.911 9.708 7.661 16.078-1.364 6.956-7.617 12.142-14.722 12.142z" fill="#2b495d"/><path d="m230.16 419.38c-6.41 0-12.21-4.24-14.236-10.299-2.028-6.064.179-12.956 5.309-16.756 4.711-3.489 11.166-3.875 16.272-1.02 5.415 3.028 8.465 9.332 7.464 15.461-1.17 7.164-7.536 12.614-14.809 12.614z" fill="#62a793"/></g></g><g><path d="m318.781 105.063h-125.562c-8.284 0-15-6.716-15-15s6.716-15 15-15h125.563c8.284 0 15 6.716 15 15s-6.717 15-15.001 15z" fill="#e2e9ee"/><path d="m318.781 75.063h-63.623v30h63.623c8.284 0 15-6.716 15-15s-6.716-15-15-15z" fill="#bbd0d5"/></g></g></g></svg>