<svg id="Layer_1" enable-background="new 0 0 512.002 512.002" height="512" viewBox="0 0 512.002 512.002" width="512" xmlns="http://www.w3.org/2000/svg"><g><path d="m496.997 0h-57.997c-41.355 0-75 33.645-75 75v99.003c0 36.655-27.533 67-63.003 71.44v-200.441c0-8.271 6.729-15 15-15h13c8.284 0 15-6.716 15-15s-6.716-15-15-15h-146c-8.284 0-15 6.716-15 15s6.716 15 15 15h13c8.271 0 15 6.729 15 15v200.44c-35.467-4.444-62.995-34.787-62.995-71.439v-99.003c0-41.355-33.645-75-75-75h-57.997c-8.284 0-15 6.716-15 15v60c0 8.281 6.71 14.995 14.991 15l43.005.025v83.978c0 86.306 67.838 157.065 152.995 161.752v131.247c0 8.271-6.729 15-15 15h-13c-8.284 0-15 6.716-15 15s6.716 15 15 15h146c8.284 0 15-6.716 15-15s-6.716-15-15-15h-13c-8.271 0-15-6.729-15-15v-131.246c85.157-4.687 153.004-75.446 153.004-161.747l.03-84.009h42.967c8.284 0 15-6.716 15-15v-60c0-8.284-6.716-15-15-15z" fill="#7dd5f4"/><path d="m496.997 0h-57.997c-41.355 0-75 33.645-75 75v99.003c0 36.655-27.533 67-63.003 71.44v-200.441c0-8.271 6.729-15 15-15h13c8.284 0 15-6.716 15-15s-6.716-15-15-15h-72.996v511.999h72.996c8.284 0 15-6.716 15-15s-6.716-15-15-15h-13c-8.271 0-15-6.729-15-15v-131.246c85.156-4.686 153.003-75.445 153.003-161.746l.03-84.009h42.967c8.284 0 15-6.716 15-15v-60c0-8.284-6.716-15-15-15z" fill="#4793ff"/></g></svg>