<?xml version="1.0" encoding="iso-8859-1"?>
<!-- Generator: Adobe Illustrator 19.0.0, SVG Export Plug-In . SVG Version: 6.00 Build 0)  -->
<svg version="1.1" id="Capa_1" xmlns="http://www.w3.org/2000/svg" xmlns:xlink="http://www.w3.org/1999/xlink" x="0px" y="0px"
	 viewBox="0 0 512 512" style="enable-background:new 0 0 512 512;" xml:space="preserve">
<path style="fill:#AEADB3;" d="M511.399,469.935l-60.003-240.013c-0.899-4.801-4.499-8.701-9-10.502l-48.603-18.301L361.39,79.612
	c-1.199-4.501-4.199-8.101-8.399-9.902L270.986,34.91l-24.001-10.202c-4.801-2.1-11.502-1.5-15.701,1.5l-105.006,75.004
	c-3.001,2.401-5.101,5.4-6,9.301L93.277,237.422l-24.9,12.6c-3.9,2.1-6.601,5.4-7.8,9.301L0.572,469.334
	c-2.701,9,4.499,19.201,14.4,19.201h482.026c8.401,0,15.001-7.2,15.001-15.001C512,472.334,511.699,471.134,511.399,469.935z"/>
<path style="fill:#8B8892;" d="M512,473.535c0,7.8-6.599,15.001-15.001,15.001H270.987V34.911l82.004,34.801
	c4.2,1.8,7.2,5.4,8.399,9.902l32.403,121.507l48.603,18.301c4.501,1.8,8.101,5.7,9,10.502L511.4,469.936
	C511.699,471.134,512,472.334,512,473.535z"/>
<path style="fill:#57555C;" d="M418.695,488.536H123.278l34.803-139.509c1.5-4.799,5.4-8.399,9.9-9.902l98.505-30.002
	c1.501-0.599,3.001-0.599,4.501-0.599c1.5,0,2.999,0,4.501,0.599l98.505,30.002c4.499,1.501,8.399,5.101,9.9,9.902L418.695,488.536z
	"/>
<path style="fill:#3C3A41;" d="M418.695,488.536H270.987v-180.01c1.5,0,2.999,0,4.501,0.599l98.505,30.002
	c4.499,1.501,8.399,5.101,9.9,9.902L418.695,488.536z"/>
<path style="fill:#787780;" d="M164.981,308.526H134.98c-8.291,0-15.001-6.709-15.001-15.001c0-8.291,6.709-15.001,15.001-15.001
	h30.002c8.291,0,15.001,6.709,15.001,15.001C179.982,301.816,173.273,308.526,164.981,308.526z"/>
<path style="fill:#57555C;" d="M376.993,278.524h-30.002c-8.291,0-15.001-6.709-15.001-15.001s6.709-15.001,15.001-15.001h30.002
	c8.291,0,15.001,6.709,15.001,15.001C391.994,271.815,385.284,278.524,376.993,278.524z"/>
<path style="fill:#787780;" d="M255.986,158.518h-31.002c-8.291,0-15.001-6.709-15.001-15.001s6.709-15.001,15.001-15.001h31.002
	c8.291,0,15.001,6.709,15.001,15.001S264.278,158.518,255.986,158.518z"/>
<g>
</g>
<g>
</g>
<g>
</g>
<g>
</g>
<g>
</g>
<g>
</g>
<g>
</g>
<g>
</g>
<g>
</g>
<g>
</g>
<g>
</g>
<g>
</g>
<g>
</g>
<g>
</g>
<g>
</g>
</svg>
