<?xml version="1.0" encoding="iso-8859-1"?>
<!-- Generator: Adobe Illustrator 19.0.0, SVG Export Plug-In . SVG Version: 6.00 Build 0)  -->
<svg version="1.1" id="Capa_1" xmlns="http://www.w3.org/2000/svg" xmlns:xlink="http://www.w3.org/1999/xlink" x="0px" y="0px"
	 viewBox="0 0 512 512" style="enable-background:new 0 0 512 512;" xml:space="preserve">
<path style="fill:#91E0FF;" d="M256.8,512h-1.6c-113.647,0-189.137-117.75-141.879-221.083L242.359,8.761
	C244.801,3.423,250.131,0,256,0c5.869,0,11.199,3.423,13.641,8.761L398.68,290.916C445.949,394.277,370.422,512,256.8,512z"/>
<g>
	<path style="fill:#61CEF3;" d="M398.679,290.917L269.641,8.761C267.199,3.423,261.869,0,256,0v512h0.8
		C370.422,512,445.949,394.277,398.679,290.917z"/>
	<path style="fill:#61CEF3;" d="M384.993,260.991c-3.899,0.001-7.666,0.129-11.298,0.393c-29.325,2.136-46.216,12.612-61.117,21.856
		c-15.352,9.523-28.61,17.747-56.579,17.747s-41.227-8.224-56.579-17.747c-14.902-9.244-31.792-19.72-61.117-21.856
		c-3.632-0.264-7.398-0.392-11.298-0.393l-13.685,29.925C66.051,394.277,141.578,512,255.2,512h1.6
		c113.647,0,189.137-117.75,141.879-221.083L384.993,260.991z"/>
</g>
<path style="fill:#23A3E1;" d="M398.679,290.917l-13.686-29.925c-3.899,0.001-7.666,0.129-11.297,0.393
	c-29.325,2.136-46.216,12.612-61.117,21.856c-15.352,9.523-28.61,17.747-56.578,17.747V512h0.8
	C370.447,512,445.937,394.25,398.679,290.917z"/>
<g>
</g>
<g>
</g>
<g>
</g>
<g>
</g>
<g>
</g>
<g>
</g>
<g>
</g>
<g>
</g>
<g>
</g>
<g>
</g>
<g>
</g>
<g>
</g>
<g>
</g>
<g>
</g>
<g>
</g>
</svg>
